<?xml version="1.0" encoding="UTF-8"?>
<svg id="svg2" xmlns="http://www.w3.org/2000/svg" viewBox="0 0 258.59 222.9"><defs><style>.cls-1{fill:#fff;}.cls-2{fill:#fee600;}.cls-3{fill:#fde600;}.cls-4{fill:none;}</style></defs><path class="cls-1" d="M252.59,82.45h-15.63c-5.02-18.78-14.93-35.92-28.84-49.83C187.08,11.58,159.09,0,129.3,0S71.5,11.58,50.47,32.62c-13.91,13.91-23.81,31.05-28.83,49.83H0v57.99H21.68c6.07,22.46,19.26,42.76,37.48,57.55,19.77,16.05,44.68,24.9,70.14,24.9s50.36-8.84,70.14-24.9c18.22-14.8,31.4-35.09,37.48-57.55h21.68v-57.99h-6Zm-89.79,57.99c-8.31,9.64-20.43,15.33-33.51,15.33s-25.19-5.69-33.51-15.33h67.02Zm.04-57.99H95.74c.7-.81,1.43-1.6,2.19-2.36,8.37-8.37,19.5-12.97,31.36-12.97s22.99,4.61,31.35,12.97c.76,.76,1.49,1.55,2.19,2.36Z"/><path class="cls-4" d="M129.17,166.65c22.34,0,41.62-13.22,50.4-32.21H79c8.74,18.99,27.93,32.21,50.17,32.21Z"/><path d="M248.09,88.45h-15.84c-4.29-19.41-13.99-37.22-28.37-51.59-19.9-19.9-46.39-30.86-74.58-30.86s-54.69,10.96-74.59,30.86c-14.37,14.37-24.08,32.18-28.37,51.59H6v45.99H26.38c10.52,47.12,52.67,82.45,102.92,82.45s92.39-35.33,102.91-82.45h20.38v-45.99h-4.5Zm-118.79,73.33c-27.75,0-50.33-22.58-50.33-50.33,0-13.46,5.23-26.1,14.73-35.6,9.5-9.5,22.14-14.73,35.6-14.73s26.1,5.23,35.6,14.73c9.5,9.5,14.73,22.14,14.73,35.6,0,27.75-22.58,50.33-50.33,50.33Z"/><path class="cls-4" d="M129.17,55.99c-22.27,0-41.5,13.33-50.21,32.46h100.66c-8.76-19.13-28.07-32.46-50.44-32.46Z"/><path class="cls-3" d="M129.17,55.99c22.38,0,41.68,13.33,50.44,32.46h47.47c-10.43-44.34-50.31-77.45-97.79-77.45S41.93,44.11,31.51,88.45h47.45c8.72-19.13,27.94-32.46,50.21-32.46Z"/><path class="cls-3" d="M129.17,166.65c-22.24,0-41.43-13.22-50.17-32.21H31.51c10.43,44.34,50.31,77.45,97.79,77.45s87.36-33.11,97.79-77.45h-47.51c-8.78,18.99-28.06,32.21-50.4,32.21Z"/><path d="M73.96,111.46c0,8.2,1.81,15.98,5.04,22.99h100.57c3.24-7,5.06-14.79,5.06-22.99s-1.8-15.99-5.02-23.01H78.96c-3.2,7.01-4.99,14.8-4.99,23.01Z"/><g><path class="cls-2" d="M100,98.49v7.67h-22.61c-.65,0-1.19,.23-1.64,.7-.44,.47-.67,1.01-.67,1.64v6.26c0,.62,.22,1.17,.67,1.62,.44,.46,.99,.7,1.64,.72h14.4v-3.07h-9.62l-2.72-5h21.73v15.37h-28.3c-1.08,0-2.1-.2-3.06-.61-.96-.41-1.8-.97-2.52-1.69-.72-.72-1.29-1.56-1.71-2.52-.42-.96-.63-1.99-.63-3.1v-10.04c0-1.08,.21-2.11,.63-3.08s.99-1.82,1.71-2.54c.72-.72,1.56-1.29,2.52-1.71,.96-.42,1.98-.63,3.06-.63h27.11Z"/><path class="cls-2" d="M149.82,98.49l-15.48,17.71v8.21h-10.12v-8.17l-15.48-17.75h11.77l8.78,10.4,8.75-10.4h11.77Z"/><path class="cls-2" d="M193.62,98.49v25.92h-8.09v-15.88l-6.6,15.88h-5.99l-6.57-15.88v15.88h-8.09v-25.92h11.09l6.6,16.99,7.06-16.99h10.6Z"/></g><g><polygon points="68.84 142.33 44.76 142.78 49.2 150.19 52.15 150.08 58.03 159.88 61.74 153.56 59.5 149.83 66.69 149.57 57.93 164.74 62.38 172.15 74.1 151.11 68.84 142.33"/><path d="M81,160.84c-.82-.19-1.64-.23-2.45-.11-.81,.12-1.58,.39-2.32,.81-.73,.42-1.37,.98-1.9,1.7l-4.85,6.51c-.53,.71-.89,1.48-1.07,2.31-.18,.83-.21,1.65-.08,2.46,.13,.81,.41,1.57,.82,2.29,.42,.72,.96,1.33,1.65,1.84l17.03,12.67,3.86-5.19-14.12-10.51c-.41-.33-.65-.74-.71-1.25-.07-.51,.05-.96,.35-1.37l2.51-3.37c.3-.4,.7-.65,1.21-.73,.51-.08,.97,.03,1.39,.35l14.12,10.51,3.86-5.19-17.03-12.67c-.7-.52-1.46-.87-2.28-1.06Z"/><polygon points="102.01 182.42 112.55 184.27 110.05 198.47 118.08 199.88 120.57 185.68 130.94 187.5 132.06 181.13 103.12 176.05 102.01 182.42"/><rect x="136.91" y="178.73" width="8.15" height="20.88" transform="translate(-26.58 23.08) rotate(-8.56)"/><path d="M180.58,177.83l-3.76-7.17c-.41-.77-.94-1.42-1.6-1.96-.66-.54-1.39-.93-2.17-1.17-.78-.24-1.59-.34-2.44-.28-.84,.06-1.65,.29-2.42,.7l-15.02,7.88c-.77,.4-1.42,.94-1.95,1.59-.53,.66-.91,1.38-1.16,2.16-.25,.78-.34,1.6-.27,2.45,.06,.85,.3,1.66,.7,2.43l3.76,7.17c.41,.79,.95,1.45,1.61,1.97,.66,.53,1.38,.91,2.16,1.16,.78,.25,1.59,.33,2.43,.26,.84-.07,1.64-.3,2.41-.71l15.03-7.88c.77-.4,1.42-.93,1.95-1.58,.53-.65,.92-1.37,1.17-2.15,.24-.78,.33-1.59,.28-2.44-.06-.84-.29-1.66-.71-2.44Zm-8.01,3.45c-.16,.5-.46,.88-.91,1.13l-8.58,4.5c-.47,.23-.95,.26-1.44,.1-.49-.16-.85-.46-1.08-.91l-1.95-3.72c-.23-.44-.28-.91-.13-1.4,.15-.49,.45-.86,.91-1.1l8.58-4.5c.46-.24,.94-.29,1.44-.13,.5,.15,.86,.45,1.09,.9l1.95,3.72c.23,.44,.27,.92,.12,1.41Z"/><polygon points="209.9 151.58 192.96 139.38 188.19 145.99 199.14 153.88 181.53 155.24 175.67 163.39 192.61 175.59 197.37 168.98 186.43 161.09 204.02 159.75 209.9 151.58"/><path d="M103.44,45.21c.47,.7,1.03,1.29,1.71,1.76,.67,.47,1.42,.8,2.23,1s1.66,.21,2.51,.06l16.72-2.9c.86-.15,1.64-.45,2.34-.91,.71-.46,1.29-1.02,1.77-1.69,.47-.67,.81-1.42,1.01-2.24,.2-.82,.23-1.67,.07-2.54l-1.38-7.97c-.15-.86-.46-1.64-.92-2.36-.47-.71-1.04-1.31-1.71-1.78s-1.42-.81-2.24-1.01c-.82-.2-1.66-.23-2.52-.08l-16.71,2.9c-.86,.15-1.64,.46-2.34,.92-.7,.46-1.29,1.03-1.76,1.71-.47,.67-.81,1.42-1.01,2.25s-.23,1.67-.08,2.53l1.38,7.97c.15,.88,.46,1.67,.93,2.37Zm6.35-11.23c.29-.42,.69-.68,1.21-.77l9.54-1.66c.51-.09,.98,.02,1.41,.32,.43,.3,.68,.7,.77,1.19l.72,4.14c.09,.5-.02,.96-.32,1.38-.3,.42-.7,.69-1.22,.8l-9.54,1.66c-.52,.07-.98-.04-1.4-.35-.42-.3-.67-.7-.75-1.19l-.72-4.14c-.08-.49,.02-.95,.31-1.38Z"/><path d="M161.35,52.13c.84-.09,1.63-.31,2.37-.68,.73-.37,1.38-.86,1.94-1.48,.56-.62,.98-1.33,1.25-2.14l2.57-7.7c.28-.84,.38-1.69,.31-2.53-.08-.84-.3-1.63-.67-2.36-.37-.73-.86-1.38-1.49-1.95-.63-.56-1.36-.99-2.21-1.27l-22.78-7.59-6.6,19.81,7.73,2.58,4.57-13.73,11.61,3.87c.51,.17,.88,.49,1.1,.96,.22,.47,.25,.95,.09,1.42l-1.36,4.07c-.16,.48-.47,.84-.93,1.08-.46,.25-.95,.28-1.46,.11l-10.95-3.65,1.28,7.18,11.09,3.69c.84,.28,1.69,.38,2.53,.29Z"/><polygon points="182.25 61.71 201.12 59.94 194.24 53.42 183.36 54.64 184 43.69 177.12 37.16 176.32 56.12 171.79 60.89 177.7 66.5 182.25 61.71"/><path d="M84.27,63.39l-9.25-11.85,9.44-7.37s.03-.02,.05-.03c.01,0,.02-.02,.03-.03,.5-.39,1.23-.3,1.62,.2,.39,.5,.3,1.23-.2,1.62-.01,.01-.03,.02-.04,.03-.01,.01-.02,.02-.03,.03l-8.7,6.79,4.08,1.91,6.95-5.43s.01-.01,.02-.02c0,0,.02,0,.02-.01l.1-.08s.04-.02,.06-.03c.59-.33,1.35-.19,1.78,.36,.44,.56,.37,1.36-.12,1.85,0,0,0,.02,0,.02l-.12,.09s0,0,0,0,0,0,0,0l-8.75,6.83,6.18,2.67,9.26-7.23c.73-.57,1.29-1.17,1.66-1.8,.37-.62,.59-1.25,.66-1.88,.06-.63,0-1.24-.2-1.84-.2-.6-.5-1.16-.9-1.67l-1.13-1.44c-.24-.31-.54-.58-.89-.81-.36-.24-.74-.42-1.13-.55-.4-.13-.8-.2-1.22-.19-.42,0-.81,.09-1.19,.27,.26-.3,.44-.65,.54-1.05,.11-.4,.15-.81,.12-1.24-.02-.42-.11-.84-.26-1.25-.15-.41-.34-.77-.58-1.08l-1.13-1.44c-.45-.58-.98-1.02-1.57-1.32-.59-.3-1.21-.47-1.84-.5-.64-.03-1.29,.07-1.95,.29-.66,.22-1.28,.56-1.86,1.01l-18.81,14.69,12.88,16.5,6.44-5.03Z"/></g></svg>