<svg xmlns="http://www.w3.org/2000/svg" viewBox="0 0 1440 815" preserveAspectRatio="xMidYMid" width="1440" height="815" xmlns:xlink="http://www.w3.org/1999/xlink" style="shape-rendering:auto;display:block;background-position-x:0%;background-position-y:0%;background-size:auto;background-origin:padding-box;background-clip:border-box;fill:rgb(0, 0, 0);stroke:none;transform:none;opacity:1;width:1440px;height:815px;;animation:none"><g style="fill:rgb(0, 0, 0);stroke:none;transform:none;opacity:1;;animation:none"><path d="M 0 452 c 240 0 480 122 720 122 c 240 0 480 -122 720 -122 c 240 0 480 122 720 122 c 240 0 480 -122 720 -122" fill="none" stroke="rgb(160, 73, 57)" stroke-opacity="0" stroke-width="2" transform="matrix(1,0,0,1,0,0)" style="fill:none;stroke:rgb(160, 73, 57);transform:none;opacity:1;;animation:none"/>
<path d="M 0 452.018 c 240 0 480 121.964 720 121.964 c 240 0 480 -121.964 720 -121.964 c 240 0 480 121.964 720 121.964 c 240 0 480 -121.964 720 -121.964" fill="none" stroke="rgb(160, 73, 57)" stroke-opacity="0" stroke-width="2" transform="matrix(1,0,0,1,-7.559999942779541,0)" style="fill:none;stroke:rgb(160, 73, 57);transform:none;opacity:1;;animation:none"/>
<path d="M 0 452.077 c 240 0 480 121.847 720 121.847 c 240 0 480 -121.847 720 -121.847 c 240 0 480 121.847 720 121.847 c 240 0 480 -121.847 720 -121.847" fill="none" stroke="rgb(160, 73, 57)" stroke-opacity="0" stroke-width="2" transform="matrix(1,0,0,1,-15.479999542236328,0)" style="fill:none;stroke:rgb(160, 73, 57);transform:none;opacity:1;;animation:none"/>
<path d="M 0 452.171 c 240 0 480 121.657 720 121.657 c 240 0 480 -121.657 720 -121.657 c 240 0 480 121.657 720 121.657 c 240 0 480 -121.657 720 -121.657" fill="none" stroke="rgb(159, 74, 58)" stroke-opacity="0" stroke-width="2" transform="matrix(1,0,0,1,-23.040000915527344,0)" style="fill:none;stroke:rgb(159, 74, 58);transform:none;opacity:1;;animation:none"/>
<path d="M 0 452.305 c 240 0 480 121.389 720 121.389 c 240 0 480 -121.389 720 -121.389 c 240 0 480 121.389 720 121.389 c 240 0 480 -121.389 720 -121.389" fill="none" stroke="rgb(159, 75, 59)" stroke-opacity="0" stroke-width="2" transform="matrix(1,0,0,1,-30.600000381469727,0)" style="fill:none;stroke:rgb(159, 75, 59);transform:none;opacity:1;;animation:none"/>
<path d="M 0 452.489 c 240 0 480 121.023 720 121.023 c 240 0 480 -121.023 720 -121.023 c 240 0 480 121.023 720 121.023 c 240 0 480 -121.023 720 -121.023" fill="none" stroke="rgb(158, 76, 60)" stroke-opacity="0" stroke-width="2" transform="matrix(1,0,0,1,-38.52000045776367,0)" style="fill:none;stroke:rgb(158, 76, 60);transform:none;opacity:1;;animation:none"/>
<path d="M 0 452.706 c 240 0 480 120.587 720 120.587 c 240 0 480 -120.587 720 -120.587 c 240 0 480 120.587 720 120.587 c 240 0 480 -120.587 720 -120.587" fill="none" stroke="rgb(157, 77, 61)" stroke-opacity="0" stroke-width="2" transform="matrix(1,0,0,1,-46.08000183105469,0)" style="fill:none;stroke:rgb(157, 77, 61);transform:none;opacity:1;;animation:none"/>
<path d="M 0 452.966 c 240 0 480 120.067 720 120.067 c 240 0 480 -120.067 720 -120.067 c 240 0 480 120.067 720 120.067 c 240 0 480 -120.067 720 -120.067" fill="none" stroke="rgb(156, 78, 62)" stroke-opacity="0" stroke-width="2" transform="matrix(1,0,0,1,-53.63999938964844,0)" style="fill:none;stroke:rgb(156, 78, 62);transform:none;opacity:1;;animation:none"/>
<path d="M 0 453.286 c 240 0 480 119.428 720 119.428 c 240 0 480 -119.428 720 -119.428 c 240 0 480 119.428 720 119.428 c 240 0 480 -119.428 720 -119.428" fill="none" stroke="rgb(155, 80, 64)" stroke-opacity="0" stroke-width="2" transform="matrix(1,0,0,1,-61.560001373291016,0)" style="fill:none;stroke:rgb(155, 80, 64);transform:none;opacity:1;;animation:none"/>
<path d="M 0 453.638 c 240 0 480 118.724 720 118.724 c 240 0 480 -118.724 720 -118.724 c 240 0 480 118.724 720 118.724 c 240 0 480 -118.724 720 -118.724" fill="none" stroke="rgb(153, 82, 66)" stroke-opacity="0" stroke-width="2" transform="matrix(1,0,0,1,-69.12000274658203,0)" style="fill:none;stroke:rgb(153, 82, 66);transform:none;opacity:1;;animation:none"/>
<path d="M 0 454.036 c 240 0 480 117.928 720 117.928 c 240 0 480 -117.928 720 -117.928 c 240 0 480 117.928 720 117.928 c 240 0 480 -117.928 720 -117.928" fill="none" stroke="rgb(151, 84, 68)" stroke-opacity="0" stroke-width="2" transform="matrix(1,0,0,1,-76.68000030517578,0)" style="fill:none;stroke:rgb(151, 84, 68);transform:none;opacity:1;;animation:none"/>
<path d="M 0 454.505 c 240 0 480 116.991 720 116.991 c 240 0 480 -116.991 720 -116.991 c 240 0 480 116.991 720 116.991 c 240 0 480 -116.991 720 -116.991" fill="none" stroke="rgb(149, 87, 71)" stroke-opacity="0" stroke-width="2" transform="matrix(1,0,0,1,-84.5999984741211,0)" style="fill:none;stroke:rgb(149, 87, 71);transform:none;opacity:1;;animation:none"/>
<path d="M 0 455.003 c 240 0 480 115.995 720 115.995 c 240 0 480 -115.995 720 -115.995 c 240 0 480 115.995 720 115.995 c 240 0 480 -115.995 720 -115.995" fill="none" stroke="rgb(147, 90, 74)" stroke-opacity="0" stroke-width="2" transform="matrix(1,0,0,1,-92.16000366210938,0)" style="fill:none;stroke:rgb(147, 90, 74);transform:none;opacity:1;;animation:none"/>
<path d="M 0 455.551 c 240 0 480 114.897 720 114.897 c 240 0 480 -114.897 720 -114.897 c 240 0 480 114.897 720 114.897 c 240 0 480 -114.897 720 -114.897" fill="none" stroke="rgb(144, 93, 77)" stroke-opacity="0" stroke-width="2" transform="matrix(1,0,0,1,-99.72000122070312,0)" style="fill:none;stroke:rgb(144, 93, 77);transform:none;opacity:1;;animation:none"/>
<path d="M 0 456.183 c 240 0 480 113.635 720 113.635 c 240 0 480 -113.635 720 -113.635 c 240 0 480 113.635 720 113.635 c 240 0 480 -113.635 720 -113.635" fill="none" stroke="rgb(141, 97, 81)" stroke-opacity="0" stroke-width="2" transform="matrix(1,0,0,1,-107.63999938964844,0)" style="fill:none;stroke:rgb(141, 97, 81);transform:none;opacity:1;;animation:none"/>
<path d="M 0 456.84 c 240 0 480 112.319 720 112.319 c 240 0 480 -112.319 720 -112.319 c 240 0 480 112.319 720 112.319 c 240 0 480 -112.319 720 -112.319" fill="none" stroke="rgb(138, 101, 85)" stroke-opacity="0" stroke-width="2" transform="matrix(1,0,0,1,-115.19999694824219,0)" style="fill:none;stroke:rgb(138, 101, 85);transform:none;opacity:1;;animation:none"/>
<path d="M 0 457.554 c 240 0 480 110.893 720 110.893 c 240 0 480 -110.893 720 -110.893 c 240 0 480 110.893 720 110.893 c 240 0 480 -110.893 720 -110.893" fill="none" stroke="rgb(135, 105, 90)" stroke-opacity="0" stroke-width="2" transform="matrix(1,0,0,1,-122.76000213623047,0)" style="fill:none;stroke:rgb(135, 105, 90);transform:none;opacity:1;;animation:none"/>
<path d="M 0 458.362 c 240 0 480 109.275 720 109.275 c 240 0 480 -109.275 720 -109.275 c 240 0 480 109.275 720 109.275 c 240 0 480 -109.275 720 -109.275" fill="none" stroke="rgb(131, 110, 95)" stroke-opacity="0" stroke-width="2" transform="matrix(1,0,0,1,-130.67999267578125,0)" style="fill:none;stroke:rgb(131, 110, 95);transform:none;opacity:1;;animation:none"/>
<path d="M 0 459.194 c 240 0 480 107.612 720 107.612 c 240 0 480 -107.612 720 -107.612 c 240 0 480 107.612 720 107.612 c 240 0 480 -107.612 720 -107.612" fill="none" stroke="rgb(127, 115, 100)" stroke-opacity="0" stroke-width="2" transform="matrix(1,0,0,1,-138.24000549316406,0)" style="fill:none;stroke:rgb(127, 115, 100);transform:none;opacity:1;;animation:none"/>
<path d="M 0 460.086 c 240 0 480 105.827 720 105.827 c 240 0 480 -105.827 720 -105.827 c 240 0 480 105.827 720 105.827 c 240 0 480 -105.827 720 -105.827" fill="none" stroke="rgb(123, 120, 105)" stroke-opacity="0" stroke-width="2" transform="matrix(1,0,0,1,-145.8000030517578,0)" style="fill:none;stroke:rgb(123, 120, 105);transform:none;opacity:1;;animation:none"/>
<path d="M 0 461.088 c 240 0 480 103.825 720 103.825 c 240 0 480 -103.825 720 -103.825 c 240 0 480 103.825 720 103.825 c 240 0 480 -103.825 720 -103.825" fill="none" stroke="rgb(118, 126, 111)" stroke-opacity="0" stroke-width="2" transform="matrix(1,0,0,1,-153.72000122070312,0)" style="fill:none;stroke:rgb(118, 126, 111);transform:none;opacity:1;;animation:none"/>
<path d="M 0 462.108 c 240 0 480 101.784 720 101.784 c 240 0 480 -101.784 720 -101.784 c 240 0 480 101.784 720 101.784 c 240 0 480 -101.784 720 -101.784" fill="none" stroke="rgb(113, 132, 117)" stroke-opacity="0" stroke-width="2" transform="matrix(1,0,0,1,-161.27999877929688,0)" style="fill:none;stroke:rgb(113, 132, 117);transform:none;opacity:1;;animation:none"/>
<path d="M 0 463.194 c 240 0 480 99.6121 720 99.6121 c 240 0 480 -99.6121 720 -99.6121 c 240 0 480 99.6121 720 99.6121 c 240 0 480 -99.6121 720 -99.6121" fill="none" stroke="rgb(108, 138, 124)" stroke-opacity="0" stroke-width="2" transform="matrix(1,0,0,1,-168.83999633789062,0)" style="fill:none;stroke:rgb(108, 138, 124);transform:none;opacity:1;;animation:none"/>
<path d="M 0 464.403 c 240 0 480 97.1942 720 97.1942 c 240 0 480 -97.1942 720 -97.1942 c 240 0 480 97.1942 720 97.1942 c 240 0 480 -97.1942 720 -97.1942" fill="none" stroke="rgb(103, 145, 130)" stroke-opacity="0" stroke-width="2" transform="matrix(1,0,0,1,-176.75999450683594,0)" style="fill:none;stroke:rgb(103, 145, 130);transform:none;opacity:1;;animation:none"/>
<path d="M 0 465.627 c 240 0 480 94.7469 720 94.7469 c 240 0 480 -94.7469 720 -94.7469 c 240 0 480 94.7469 720 94.7469 c 240 0 480 -94.7469 720 -94.7469" fill="none" stroke="rgb(98, 151, 137)" stroke-opacity="0" stroke-width="2" transform="matrix(1,0,0,1,-184.32000732421875,0)" style="fill:none;stroke:rgb(98, 151, 137);transform:none;opacity:1;;animation:none"/>
<path d="M 0 466.92 c 240 0 480 92.1606 720 92.1606 c 240 0 480 -92.1606 720 -92.1606 c 240 0 480 92.1606 720 92.1606 c 240 0 480 -92.1606 720 -92.1606" fill="none" stroke="rgb(93, 157, 143)" stroke-opacity="0" stroke-width="2" transform="matrix(1,0,0,1,-191.8800048828125,0)" style="fill:none;stroke:rgb(93, 157, 143);transform:none;opacity:1;;animation:none"/>
<path d="M 0 468.35 c 240 0 480 89.2995 720 89.2995 c 240 0 480 -89.2995 720 -89.2995 c 240 0 480 89.2995 720 89.2995 c 240 0 480 -89.2995 720 -89.2995" fill="none" stroke="rgb(88, 164, 149)" stroke-opacity="0" stroke-width="2" transform="matrix(1,0,0,1,-199.8000030517578,0)" style="fill:none;stroke:rgb(88, 164, 149);transform:none;opacity:1;;animation:none"/>
<path d="M 0 469.789 c 240 0 480 86.4213 720 86.4213 c 240 0 480 -86.4213 720 -86.4213 c 240 0 480 86.4213 720 86.4213 c 240 0 480 -86.4213 720 -86.4213" fill="none" stroke="rgb(84, 170, 155)" stroke-opacity="0" stroke-width="2" transform="matrix(1,0,0,1,-207.36000061035156,0)" style="fill:none;stroke:rgb(84, 170, 155);transform:none;opacity:1;;animation:none"/>
<path d="M 0 471.301 c 240 0 480 83.3974 720 83.3974 c 240 0 480 -83.3974 720 -83.3974 c 240 0 480 83.3974 720 83.3974 c 240 0 480 -83.3974 720 -83.3974" fill="none" stroke="rgb(79, 175, 161)" stroke-opacity="0" stroke-width="2" transform="matrix(1,0,0,1,-214.9199981689453,0)" style="fill:none;stroke:rgb(79, 175, 161);transform:none;opacity:1;;animation:none"/>
<path d="M 0 472.964 c 240 0 480 80.0719 720 80.0719 c 240 0 480 -80.0719 720 -80.0719 c 240 0 480 80.0719 720 80.0719 c 240 0 480 -80.0719 720 -80.0719" fill="none" stroke="rgb(75, 181, 167)" stroke-opacity="0" stroke-width="2" transform="matrix(1,0,0,1,-222.83999633789062,0)" style="fill:none;stroke:rgb(75, 181, 167);transform:none;opacity:1;;animation:none"/>
<path d="M 0 474.627 c 240 0 480 76.7459 720 76.7459 c 240 0 480 -76.7459 720 -76.7459 c 240 0 480 76.7459 720 76.7459 c 240 0 480 -76.7459 720 -76.7459" fill="none" stroke="rgb(71, 186, 172)" stroke-opacity="0" stroke-width="2" transform="matrix(1,0,0,1,-230.39999389648438,0)" style="fill:none;stroke:rgb(71, 186, 172);transform:none;opacity:1;;animation:none"/>
<path d="M 0 476.364 c 240 0 480 73.2714 720 73.2714 c 240 0 480 -73.2714 720 -73.2714 c 240 0 480 73.2714 720 73.2714 c 240 0 480 -73.2714 720 -73.2714" fill="none" stroke="rgb(67, 190, 177)" stroke-opacity="0" stroke-width="2" transform="matrix(1,0,0,1,-237.9600067138672,0)" style="fill:none;stroke:rgb(67, 190, 177);transform:none;opacity:1;;animation:none"/>
<path d="M 0 478.264 c 240 0 480 69.4725 720 69.4725 c 240 0 480 -69.4725 720 -69.4725 c 240 0 480 69.4725 720 69.4725 c 240 0 480 -69.4725 720 -69.4725" fill="none" stroke="rgb(63, 195, 181)" stroke-opacity="0" stroke-width="2" transform="matrix(1,0,0,1,-245.8800048828125,0)" style="fill:none;stroke:rgb(63, 195, 181);transform:none;opacity:1;;animation:none"/>
<path d="M 0 480.152 c 240 0 480 65.6958 720 65.6958 c 240 0 480 -65.6958 720 -65.6958 c 240 0 480 65.6958 720 65.6958 c 240 0 480 -65.6958 720 -65.6958" fill="none" stroke="rgb(60, 199, 185)" stroke-opacity="0" stroke-width="2" transform="matrix(1,0,0,1,-253.44000244140625,0)" style="fill:none;stroke:rgb(60, 199, 185);transform:none;opacity:1;;animation:none"/>
<path d="M 0 482.113 c 240 0 480 61.7739 720 61.7739 c 240 0 480 -61.7739 720 -61.7739 c 240 0 480 61.7739 720 61.7739 c 240 0 480 -61.7739 720 -61.7739" fill="none" stroke="rgb(57, 202, 189)" stroke-opacity="0" stroke-width="2" transform="matrix(1,0,0,1,-261,0)" style="fill:none;stroke:rgb(57, 202, 189);transform:none;opacity:1;;animation:none"/>
<path d="M 0 484.244 c 240 0 480 57.5128 720 57.5128 c 240 0 480 -57.5128 720 -57.5128 c 240 0 480 57.5128 720 57.5128 c 240 0 480 -57.5128 720 -57.5128" fill="none" stroke="rgb(55, 206, 192)" stroke-opacity="0" stroke-width="2" transform="matrix(1,0,0,1,-268.9200134277344,0)" style="fill:none;stroke:rgb(55, 206, 192);transform:none;opacity:1;;animation:none"/>
<path d="M 0 486.348 c 240 0 480 53.3039 720 53.3039 c 240 0 480 -53.3039 720 -53.3039 c 240 0 480 53.3039 720 53.3039 c 240 0 480 -53.3039 720 -53.3039" fill="none" stroke="rgb(53, 209, 195)" stroke-opacity="0" stroke-width="2" transform="matrix(1,0,0,1,-276.4800109863281,0)" style="fill:none;stroke:rgb(53, 209, 195);transform:none;opacity:1;;animation:none"/>
<path d="M 0 488.519 c 240 0 480 48.9622 720 48.9622 c 240 0 480 -48.9622 720 -48.9622 c 240 0 480 48.9622 720 48.9622 c 240 0 480 -48.9622 720 -48.9622" fill="none" stroke="rgb(51, 211, 198)" stroke-opacity="0" stroke-width="2" transform="matrix(1,0,0,1,-284.0400085449219,0)" style="fill:none;stroke:rgb(51, 211, 198);transform:none;opacity:1;;animation:none"/>
<path d="M 0 490.861 c 240 0 480 44.278 720 44.278 c 240 0 480 -44.278 720 -44.278 c 240 0 480 44.278 720 44.278 c 240 0 480 -44.278 720 -44.278" fill="none" stroke="rgb(49, 214, 200)" stroke-opacity="0" stroke-width="2" transform="matrix(1,0,0,1,-291.9599914550781,0)" style="fill:none;stroke:rgb(49, 214, 200);transform:none;opacity:1;;animation:none"/>
<path d="M 0 493.157 c 240 0 480 39.6853 720 39.6853 c 240 0 480 -39.6853 720 -39.6853 c 240 0 480 39.6853 720 39.6853 c 240 0 480 -39.6853 720 -39.6853" fill="none" stroke="rgb(47, 215, 202)" stroke-opacity="0" stroke-width="2" transform="matrix(1,0,0,1,-299.5199890136719,0)" style="fill:none;stroke:rgb(47, 215, 202);transform:none;opacity:1;;animation:none"/>
<path d="M 0 495.509 c 240 0 480 34.983 720 34.983 c 240 0 480 -34.983 720 -34.983 c 240 0 480 34.983 720 34.983 c 240 0 480 -34.983 720 -34.983" fill="none" stroke="rgb(46, 217, 204)" stroke-opacity="0" stroke-width="2" transform="matrix(1,0,0,1,-307.0799865722656,0)" style="fill:none;stroke:rgb(46, 217, 204);transform:none;opacity:1;;animation:none"/>
<path d="M 0 498.025 c 240 0 480 29.9503 720 29.9503 c 240 0 480 -29.9503 720 -29.9503 c 240 0 480 29.9503 720 29.9503 c 240 0 480 -29.9503 720 -29.9503" fill="none" stroke="rgb(45, 219, 205)" stroke-opacity="0" stroke-width="2" transform="matrix(1,0,0,1,-315,0)" style="fill:none;stroke:rgb(45, 219, 205);transform:none;opacity:1;;animation:none"/>
<path d="M 0 500.472 c 240 0 480 25.0568 720 25.0568 c 240 0 480 -25.0568 720 -25.0568 c 240 0 480 25.0568 720 25.0568 c 240 0 480 -25.0568 720 -25.0568" fill="none" stroke="rgb(44, 220, 207)" stroke-opacity="0" stroke-width="2" transform="matrix(1,0,0,1,-322.55999755859375,0)" style="fill:none;stroke:rgb(44, 220, 207);transform:none;opacity:1;;animation:none"/>
<path d="M 0 502.956 c 240 0 480 20.0886 720 20.0886 c 240 0 480 -20.0886 720 -20.0886 c 240 0 480 20.0886 720 20.0886 c 240 0 480 -20.0886 720 -20.0886" fill="none" stroke="rgb(43, 221, 207)" stroke-opacity="0" stroke-width="2" transform="matrix(1,0,0,1,-330.1199951171875,0)" style="fill:none;stroke:rgb(43, 221, 207);transform:none;opacity:1;;animation:none"/>
<path d="M 0 505.591 c 240 0 480 14.8188 720 14.8188 c 240 0 480 -14.8188 720 -14.8188 c 240 0 480 14.8188 720 14.8188 c 240 0 480 -14.8188 720 -14.8188" fill="none" stroke="rgb(43, 221, 208)" stroke-opacity="0" stroke-width="2" transform="matrix(1,0,0,1,-338.0400085449219,0)" style="fill:none;stroke:rgb(43, 221, 208);transform:none;opacity:1;;animation:none"/>
<path d="M 0 508.129 c 240 0 480 9.74155 720 9.74155 c 240 0 480 -9.74155 720 -9.74155 c 240 0 480 9.74155 720 9.74155 c 240 0 480 -9.74155 720 -9.74155" fill="none" stroke="rgb(42, 222, 209)" stroke-opacity="0" stroke-width="2" transform="matrix(1,0,0,1,-345.6000061035156,0)" style="fill:none;stroke:rgb(42, 222, 209);transform:none;opacity:1;;animation:none"/>
<path d="M 0 510.683 c 240 0 480 4.63402 720 4.63402 c 240 0 480 -4.63402 720 -4.63402 c 240 0 480 4.63402 720 4.63402 c 240 0 480 -4.63402 720 -4.63402" fill="none" stroke="rgb(42, 222, 209)" stroke-opacity="0.022727272727272728" stroke-width="2" transform="matrix(1,0,0,1,-353.1600036621094,0)" style="fill:none;stroke:rgb(42, 222, 209);transform:none;opacity:1;;animation:none"/>
<path d="M 0 513.366 c 240 0 480 -0.731992 720 -0.731992 c 240 0 480 0.731992 720 0.731992 c 240 0 480 -0.731992 720 -0.731992 c 240 0 480 0.731992 720 0.731992" fill="none" stroke="rgb(42, 222, 209)" stroke-opacity="0.045454545454545456" stroke-width="2" transform="matrix(1,0,0,1,-361.0799865722656,0)" style="fill:none;stroke:rgb(42, 222, 209);transform:none;opacity:1;;animation:none"/>
<path d="M 0 515.926 c 240 0 480 -5.85201 720 -5.85201 c 240 0 480 5.85201 720 5.85201 c 240 0 480 -5.85201 720 -5.85201 c 240 0 480 5.85201 720 5.85201" fill="none" stroke="rgb(42, 222, 209)" stroke-opacity="0.06818181818181818" stroke-width="2" transform="matrix(1,0,0,1,-368.6400146484375,0)" style="fill:none;stroke:rgb(42, 222, 209);transform:none;opacity:1;;animation:none"/>
<path d="M 0 518.477 c 240 0 480 -10.9537 720 -10.9537 c 240 0 480 10.9537 720 10.9537 c 240 0 480 -10.9537 720 -10.9537 c 240 0 480 10.9537 720 10.9537" fill="none" stroke="rgb(42, 222, 209)" stroke-opacity="0.09090909090909091" stroke-width="2" transform="matrix(1,0,0,1,-376.20001220703125,0)" style="fill:none;stroke:rgb(42, 222, 209);transform:none;opacity:1;;animation:none"/>
<path d="M 0 521.131 c 240 0 480 -16.2617 720 -16.2617 c 240 0 480 16.2617 720 16.2617 c 240 0 480 -16.2617 720 -16.2617 c 240 0 480 16.2617 720 16.2617" fill="none" stroke="rgb(42, 222, 209)" stroke-opacity="0.11363636363636363" stroke-width="2" transform="matrix(1,0,0,1,-384.1199951171875,0)" style="fill:none;stroke:rgb(42, 222, 209);transform:none;opacity:1;;animation:none"/>
<path d="M 0 523.639 c 240 0 480 -21.2776 720 -21.2776 c 240 0 480 21.2776 720 21.2776 c 240 0 480 -21.2776 720 -21.2776 c 240 0 480 21.2776 720 21.2776" fill="none" stroke="rgb(42, 222, 208)" stroke-opacity="0.13636363636363635" stroke-width="2" transform="matrix(1,0,0,1,-391.67999267578125,0)" style="fill:none;stroke:rgb(42, 222, 208);transform:none;opacity:1;;animation:none"/>
<path d="M 0 526.115 c 240 0 480 -26.2292 720 -26.2292 c 240 0 480 26.2292 720 26.2292 c 240 0 480 -26.2292 720 -26.2292 c 240 0 480 26.2292 720 26.2292" fill="none" stroke="rgb(42, 222, 208)" stroke-opacity="0.1590909090909091" stroke-width="2" transform="matrix(1,0,0,1,-399.239990234375,0)" style="fill:none;stroke:rgb(42, 222, 208);transform:none;opacity:1;;animation:none"/>
<path d="M 0 528.667 c 240 0 480 -31.3329 720 -31.3329 c 240 0 480 31.3329 720 31.3329 c 240 0 480 -31.3329 720 -31.3329 c 240 0 480 31.3329 720 31.3329" fill="none" stroke="rgb(42, 222, 208)" stroke-opacity="0.18181818181818182" stroke-width="2" transform="matrix(1,0,0,1,-407.1600036621094,0)" style="fill:none;stroke:rgb(42, 222, 208);transform:none;opacity:1;;animation:none"/>
<path d="M 0 531.056 c 240 0 480 -36.112 720 -36.112 c 240 0 480 36.112 720 36.112 c 240 0 480 -36.112 720 -36.112 c 240 0 480 36.112 720 36.112" fill="none" stroke="rgb(42, 222, 207)" stroke-opacity="0.20454545454545456" stroke-width="2" transform="matrix(1,0,0,1,-414.7200012207031,0)" style="fill:none;stroke:rgb(42, 222, 207);transform:none;opacity:1;;animation:none"/>
<path d="M 0 533.395 c 240 0 480 -40.7891 720 -40.7891 c 240 0 480 40.7891 720 40.7891 c 240 0 480 -40.7891 720 -40.7891 c 240 0 480 40.7891 720 40.7891" fill="none" stroke="rgb(42, 222, 206)" stroke-opacity="0.22727272727272727" stroke-width="2" transform="matrix(1,0,0,1,-422.2799987792969,0)" style="fill:none;stroke:rgb(42, 222, 206);transform:none;opacity:1;;animation:none"/>
<path d="M 0 535.784 c 240 0 480 -45.5688 720 -45.5688 c 240 0 480 45.5688 720 45.5688 c 240 0 480 -45.5688 720 -45.5688 c 240 0 480 45.5688 720 45.5688" fill="none" stroke="rgb(41, 222, 206)" stroke-opacity="0.25" stroke-width="2" transform="matrix(1,0,0,1,-430.20001220703125,0)" style="fill:none;stroke:rgb(41, 222, 206);transform:none;opacity:1;;animation:none"/>
<path d="M 0 538.004 c 240 0 480 -50.0077 720 -50.0077 c 240 0 480 50.0077 720 50.0077 c 240 0 480 -50.0077 720 -50.0077 c 240 0 480 50.0077 720 50.0077" fill="none" stroke="rgb(41, 222, 205)" stroke-opacity="0.2727272727272727" stroke-width="2" transform="matrix(1,0,0,1,-437.760009765625,0)" style="fill:none;stroke:rgb(41, 222, 205);transform:none;opacity:1;;animation:none"/>
<path d="M 0 540.159 c 240 0 480 -54.3183 720 -54.3183 c 240 0 480 54.3183 720 54.3183 c 240 0 480 -54.3183 720 -54.3183 c 240 0 480 54.3183 720 54.3183" fill="none" stroke="rgb(41, 223, 204)" stroke-opacity="0.29545454545454547" stroke-width="2" transform="matrix(1,0,0,1,-445.32000732421875,0)" style="fill:none;stroke:rgb(41, 223, 204);transform:none;opacity:1;;animation:none"/>
<path d="M 0 542.345 c 240 0 480 -58.6901 720 -58.6901 c 240 0 480 58.6901 720 58.6901 c 240 0 480 -58.6901 720 -58.6901 c 240 0 480 58.6901 720 58.6901" fill="none" stroke="rgb(41, 223, 203)" stroke-opacity="0.3181818181818182" stroke-width="2" transform="matrix(1,0,0,1,-453.239990234375,0)" style="fill:none;stroke:rgb(41, 223, 203);transform:none;opacity:1;;animation:none"/>
<path d="M 0 544.36 c 240 0 480 -62.7207 720 -62.7207 c 240 0 480 62.7207 720 62.7207 c 240 0 480 -62.7207 720 -62.7207 c 240 0 480 62.7207 720 62.7207" fill="none" stroke="rgb(41, 223, 201)" stroke-opacity="0.3409090909090909" stroke-width="2" transform="matrix(1,0,0,1,-460.79998779296875,0)" style="fill:none;stroke:rgb(41, 223, 201);transform:none;opacity:1;;animation:none"/>
<path d="M 0 546.304 c 240 0 480 -66.6082 720 -66.6082 c 240 0 480 66.6082 720 66.6082 c 240 0 480 -66.6082 720 -66.6082 c 240 0 480 66.6082 720 66.6082" fill="none" stroke="rgb(41, 223, 200)" stroke-opacity="0.36363636363636365" stroke-width="2" transform="matrix(1,0,0,1,-468.3599853515625,0)" style="fill:none;stroke:rgb(41, 223, 200);transform:none;opacity:1;;animation:none"/>
<path d="M 0 548.262 c 240 0 480 -70.5247 720 -70.5247 c 240 0 480 70.5247 720 70.5247 c 240 0 480 -70.5247 720 -70.5247 c 240 0 480 70.5247 720 70.5247" fill="none" stroke="rgb(40, 223, 198)" stroke-opacity="0.38636363636363635" stroke-width="2" transform="matrix(1,0,0,1,-476.2799987792969,0)" style="fill:none;stroke:rgb(40, 223, 198);transform:none;opacity:1;;animation:none"/>
<path d="M 0 550.056 c 240 0 480 -74.1121 720 -74.1121 c 240 0 480 74.1121 720 74.1121 c 240 0 480 -74.1121 720 -74.1121 c 240 0 480 74.1121 720 74.1121" fill="none" stroke="rgb(40, 223, 197)" stroke-opacity="0.4090909090909091" stroke-width="2" transform="matrix(1,0,0,1,-483.8399963378906,0)" style="fill:none;stroke:rgb(40, 223, 197);transform:none;opacity:1;;animation:none"/>
<path d="M 0 551.776 c 240 0 480 -77.5512 720 -77.5512 c 240 0 480 77.5512 720 77.5512 c 240 0 480 -77.5512 720 -77.5512 c 240 0 480 77.5512 720 77.5512" fill="none" stroke="rgb(40, 224, 195)" stroke-opacity="0.4318181818181818" stroke-width="2" transform="matrix(1,0,0,1,-491.3999938964844,0)" style="fill:none;stroke:rgb(40, 224, 195);transform:none;opacity:1;;animation:none"/>
<path d="M 0 553.497 c 240 0 480 -80.9949 720 -80.9949 c 240 0 480 80.9949 720 80.9949 c 240 0 480 -80.9949 720 -80.9949 c 240 0 480 80.9949 720 80.9949" fill="none" stroke="rgb(39, 224, 193)" stroke-opacity="0.45454545454545453" stroke-width="2" transform="matrix(1,0,0,1,-499.32000732421875,0)" style="fill:none;stroke:rgb(39, 224, 193);transform:none;opacity:1;;animation:none"/>
<path d="M 0 555.065 c 240 0 480 -84.1307 720 -84.1307 c 240 0 480 84.1307 720 84.1307 c 240 0 480 -84.1307 720 -84.1307 c 240 0 480 84.1307 720 84.1307" fill="none" stroke="rgb(39, 224, 191)" stroke-opacity="0.4772727272727273" stroke-width="2" transform="matrix(1,0,0,1,-506.8800048828125,0)" style="fill:none;stroke:rgb(39, 224, 191);transform:none;opacity:1;;animation:none"/>
<path d="M 0 556.56 c 240 0 480 -87.1197 720 -87.1197 c 240 0 480 87.1197 720 87.1197 c 240 0 480 -87.1197 720 -87.1197 c 240 0 480 87.1197 720 87.1197" fill="none" stroke="rgb(39, 224, 189)" stroke-opacity="0.5" stroke-width="2" transform="matrix(1,0,0,1,-514.4400024414062,0)" style="fill:none;stroke:rgb(39, 224, 189);transform:none;opacity:1;;animation:none"/>
<path d="M 0 558.048 c 240 0 480 -90.0953 720 -90.0953 c 240 0 480 90.0953 720 90.0953 c 240 0 480 -90.0953 720 -90.0953 c 240 0 480 90.0953 720 90.0953" fill="none" stroke="rgb(38, 224, 186)" stroke-opacity="0.5227272727272727" stroke-width="2" transform="matrix(1,0,0,1,-522.3599853515625,0)" style="fill:none;stroke:rgb(38, 224, 186);transform:none;opacity:1;;animation:none"/>
<path d="M 0 559.395 c 240 0 480 -92.7891 720 -92.7891 c 240 0 480 92.7891 720 92.7891 c 240 0 480 -92.7891 720 -92.7891 c 240 0 480 92.7891 720 92.7891" fill="none" stroke="rgb(38, 225, 184)" stroke-opacity="0.5454545454545454" stroke-width="2" transform="matrix(1,0,0,1,-529.9199829101562,0)" style="fill:none;stroke:rgb(38, 225, 184);transform:none;opacity:1;;animation:none"/>
<path d="M 0 560.671 c 240 0 480 -95.3421 720 -95.3421 c 240 0 480 95.3421 720 95.3421 c 240 0 480 -95.3421 720 -95.3421 c 240 0 480 95.3421 720 95.3421" fill="none" stroke="rgb(38, 225, 182)" stroke-opacity="0.5681818181818182" stroke-width="2" transform="matrix(1,0,0,1,-537.47998046875,0)" style="fill:none;stroke:rgb(38, 225, 182);transform:none;opacity:1;;animation:none"/>
<path d="M 0 561.934 c 240 0 480 -97.8684 720 -97.8684 c 240 0 480 97.8684 720 97.8684 c 240 0 480 -97.8684 720 -97.8684 c 240 0 480 97.8684 720 97.8684" fill="none" stroke="rgb(37, 225, 179)" stroke-opacity="0.5909090909090909" stroke-width="2" transform="matrix(1,0,0,1,-545.4000244140625,0)" style="fill:none;stroke:rgb(37, 225, 179);transform:none;opacity:1;;animation:none"/>
<path d="M 0 563.071 c 240 0 480 -100.141 720 -100.141 c 240 0 480 100.141 720 100.141 c 240 0 480 -100.141 720 -100.141 c 240 0 480 100.141 720 100.141" fill="none" stroke="rgb(37, 225, 177)" stroke-opacity="0.6136363636363636" stroke-width="2" transform="matrix(1,0,0,1,-552.9600219726562,0)" style="fill:none;stroke:rgb(37, 225, 177);transform:none;opacity:1;;animation:none"/>
<path d="M 0 564.141 c 240 0 480 -102.281 720 -102.281 c 240 0 480 102.281 720 102.281 c 240 0 480 -102.281 720 -102.281 c 240 0 480 102.281 720 102.281" fill="none" stroke="rgb(36, 226, 175)" stroke-opacity="0.6363636363636364" stroke-width="2" transform="matrix(1,0,0,1,-560.52001953125,0)" style="fill:none;stroke:rgb(36, 226, 175);transform:none;opacity:1;;animation:none"/>
<path d="M 0 565.192 c 240 0 480 -104.385 720 -104.385 c 240 0 480 104.385 720 104.385 c 240 0 480 -104.385 720 -104.385 c 240 0 480 104.385 720 104.385" fill="none" stroke="rgb(36, 226, 172)" stroke-opacity="0.6590909090909091" stroke-width="2" transform="matrix(1,0,0,1,-568.4400024414062,0)" style="fill:none;stroke:rgb(36, 226, 172);transform:none;opacity:1;;animation:none"/>
<g style="fill:rgb(0, 0, 0);stroke:none;transform:none;opacity:1;;animation:none"/></g><!-- [ldio] generated by https://loading.io --></svg>